M48
; DRILL file {KiCad 5.1.0-rc1-unknown-c0a86d7~66~ubuntu14.04.1} date Wed 13 Feb 2019 06:07:12 AM CET
; FORMAT={-:-/ absolute / inch / decimal}
; #@! TF.CreationDate,2019-02-13T06:07:12+01:00
; #@! TF.GenerationSoftware,Kicad,Pcbnew,5.1.0-rc1-unknown-c0a86d7~66~ubuntu14.04.1
FMAT,2
INCH
T1C0.0157
T2C0.0276
T3C0.0300
T4C0.0315
T5C0.0319
T6C0.0394
T7C0.0394
T8C0.0669
T9C0.0906
T10C0.1260
T11C0.1378
%
G90
G05
T1
X2.4181Y-5.2756
X2.4752Y-5.1724
X2.8465Y-5.3071
X3.0748Y-5.2835
X3.4114Y-5.265
X3.435Y-6.6976
X4.0193Y-3.9008
X5.0039Y-6.5787
T2
X4.9606Y-5.9626
X4.9606Y-6.0374
X4.0748Y-5.374
X4.1496Y-5.374
X4.5512Y-5.2717
X4.7512Y-5.2717
X3.7669Y-5.9606
X3.7669Y-6.0354
X4.7606Y-5.9646
X4.7606Y-6.0394
X2.3559Y-3.7106
X2.3559Y-4.0106
X3.4669Y-6.5591
X3.4669Y-6.6339
X4.0669Y-5.9606
X4.0669Y-6.0354
X3.5669Y-5.9606
X3.5669Y-6.0354
X3.9669Y-6.5591
X3.9669Y-6.6339
X4.0748Y-5.2717
X4.2748Y-5.2717
X4.6606Y-6.5591
X4.6606Y-6.6339
X2.2559Y-3.7106
X2.2559Y-4.0106
X4.6606Y-5.9646
X4.6606Y-6.0394
X5.2598Y-5.9291
X5.2598Y-6.2291
X4.5606Y-5.9646
X4.5606Y-6.0394
X5.1024Y-5.9291
X5.1024Y-6.2291
X3.7669Y-6.5591
X3.7669Y-6.6339
X4.8606Y-5.9646
X4.8606Y-6.0394
X4.8606Y-6.5591
X4.8606Y-6.6339
X3.9669Y-5.9606
X3.9669Y-6.0354
X3.6669Y-5.9606
X3.6669Y-6.0354
X3.8669Y-6.5591
X3.8669Y-6.6339
X4.4606Y-5.9665
X4.4606Y-6.0413
X3.6669Y-6.5591
X3.6669Y-6.6339
X3.5984Y-5.2717
X3.7984Y-5.2717
X3.5984Y-5.374
X3.6732Y-5.374
X2.4559Y-3.7106
X2.4559Y-4.0106
X3.8669Y-5.9606
X3.8669Y-6.0354
X3.5669Y-6.5591
X3.5669Y-6.6339
X4.5512Y-5.374
X4.626Y-5.374
T3
X4.6394Y-4.5638
X4.6394Y-5.0638
X4.7394Y-4.5638
X4.7394Y-5.0638
X4.8394Y-4.5638
X4.8394Y-5.0638
X4.9394Y-4.5638
X4.9394Y-5.0638
X5.0394Y-4.5638
X5.0394Y-5.0638
X5.1394Y-4.5638
X5.1394Y-5.0638
X5.2394Y-4.5638
X5.2394Y-5.0638
X5.3394Y-4.5638
X5.3394Y-5.0638
X3.8126Y-4.5638
X3.8126Y-5.0638
X3.9126Y-4.5638
X3.9126Y-5.0638
X4.0126Y-4.5638
X4.0126Y-5.0638
X4.1126Y-4.5638
X4.1126Y-5.0638
X4.2126Y-4.5638
X4.2126Y-5.0638
X4.3126Y-4.5638
X4.3126Y-5.0638
X4.4126Y-4.5638
X4.4126Y-5.0638
X4.5126Y-4.5638
X4.5126Y-5.0638
X2.9858Y-4.5638
X2.9858Y-5.0638
X3.0858Y-4.5638
X3.0858Y-5.0638
X3.1858Y-4.5638
X3.1858Y-5.0638
X3.2858Y-4.5638
X3.2858Y-5.0638
X3.3858Y-4.5638
X3.3858Y-5.0638
X3.4858Y-4.5638
X3.4858Y-5.0638
X3.5858Y-4.5638
X3.5858Y-5.0638
X3.6858Y-4.5638
X3.6858Y-5.0638
X1.8987Y-4.2107
X1.8987Y-5.7657
X2.5737Y-4.2107
X2.5737Y-5.7657
T4
X4.3606Y-6.1496
X4.3606Y-6.4496
X4.4606Y-6.1496
X4.4606Y-6.4496
X4.5606Y-6.1496
X4.5606Y-6.4496
X4.6606Y-6.1496
X4.6606Y-6.4496
X4.7606Y-6.1496
X4.7606Y-6.4496
X4.8606Y-6.1496
X4.8606Y-6.4496
X4.9606Y-6.1496
X4.9606Y-6.4496
X3.5984Y-5.4953
X3.5984Y-5.7953
X3.6984Y-5.4953
X3.6984Y-5.7953
X3.7984Y-5.4953
X3.7984Y-5.7953
X3.8984Y-5.4953
X3.8984Y-5.7953
X4.5512Y-5.4953
X4.5512Y-5.7953
X4.6512Y-5.4953
X4.6512Y-5.7953
X4.7512Y-5.4953
X4.7512Y-5.7953
X4.8512Y-5.4953
X4.8512Y-5.7953
X5.2598Y-5.4953
X5.2598Y-5.7953
X5.3598Y-5.4953
X5.3598Y-5.7953
X4.5315Y-3.9386
X4.5315Y-4.037
X4.0079Y-3.7835
X4.3079Y-3.7835
X3.4669Y-6.1496
X3.4669Y-6.4496
X3.5669Y-6.1496
X3.5669Y-6.4496
X3.6669Y-6.1496
X3.6669Y-6.4496
X3.7669Y-6.1496
X3.7669Y-6.4496
X3.8669Y-6.1496
X3.8669Y-6.4496
X3.9669Y-6.1496
X3.9669Y-6.4496
X4.0669Y-6.1496
X4.0669Y-6.4496
X3.0614Y-5.4961
X3.0614Y-5.7961
X3.1614Y-5.4961
X3.1614Y-5.7961
X3.3213Y-5.4961
X3.3213Y-5.7961
X3.4213Y-5.4961
X3.4213Y-5.7961
X2.8051Y-6.0709
X2.8051Y-6.1693
X2.8016Y-5.4961
X2.8016Y-5.7961
X2.9016Y-5.4961
X2.9016Y-5.7961
X2.2756Y-6.4488
X2.7756Y-6.4488
X2.0748Y-6.4843
X2.0748Y-6.5827
X4.0748Y-5.4953
X4.0748Y-5.7953
X4.1748Y-5.4953
X4.1748Y-5.7953
X4.2748Y-5.4953
X4.2748Y-5.7953
X4.3748Y-5.4953
X4.3748Y-5.7953
X5.0039Y-5.4953
X5.0039Y-5.7953
X5.1039Y-5.4953
X5.1039Y-5.7953
T5
X2.4787Y-6.6339
X2.4787Y-6.7126
X2.5787Y-6.6339
X2.5787Y-6.7126
T6
X3.0858Y-4.7031
X3.0858Y-4.8031
X4.9Y-4.8425
X4.9Y-4.9425
X4.7402Y-4.7031
X4.7402Y-4.8031
X3.5748Y-3.4803
X3.6748Y-3.4803
X3.7748Y-3.4803
X3.8748Y-3.4803
X3.2465Y-4.8425
X3.2465Y-4.9425
X3.9126Y-4.7031
X3.9126Y-4.8031
X4.8071Y-4.061
X4.9071Y-4.061
X5.0071Y-4.061
X3.1024Y-3.4803
X3.2024Y-3.4803
X3.3024Y-3.4803
X3.4024Y-3.4803
X2.2559Y-3.4807
X2.2559Y-3.5807
X2.3559Y-3.4807
X2.3559Y-3.5807
X2.4559Y-3.4807
X2.4559Y-3.5807
X2.622Y-3.4803
X2.722Y-3.4803
X2.822Y-3.4803
X2.922Y-3.4803
X2.5945Y-5.9654
X2.5945Y-6.0654
X2.5945Y-6.1654
X4.0728Y-4.8425
X4.0728Y-4.9425
X3.3173Y-6.8504
X3.3719Y-6.9622
X3.4264Y-6.8504
X3.4809Y-6.9622
X3.5354Y-6.8504
X3.59Y-6.9622
X3.6445Y-6.8504
X3.699Y-6.9622
X3.7535Y-6.8504
X3.8081Y-6.9622
X3.8626Y-6.8504
X3.9171Y-6.9622
X3.9717Y-6.8504
X4.0262Y-6.9622
X4.0807Y-6.8504
X4.1352Y-6.9622
X4.1898Y-6.8504
X4.2443Y-6.9622
X4.2988Y-6.8504
X4.3533Y-6.9622
X4.4079Y-6.8504
X4.4624Y-6.9622
X4.5169Y-6.8504
X4.5715Y-6.9622
X4.626Y-6.8504
T7
X5.374Y-4.0196
X5.374Y-4.4134
T8
X4.0787Y-3.4843
X4.2347Y-3.4843
X4.437Y-3.4843
X4.593Y-3.4843
T9
X2.2925Y-6.8189
X2.765Y-6.8189
T10
X1.9212Y-5.5782
X2.5512Y-4.3982
X3.0445Y-6.8622
X4.8988Y-6.8622
X5.2756Y-6.9291
X2.0276Y-6.9291
X2.0276Y-3.4252
X5.2756Y-3.4252
T11
X4.9071Y-3.4051
X1.9386Y-6.0654
T0
M30
